<?xml version="1.0" encoding="iso-8859-1"?>
<svg height="800px" width="800px" version="1.1" id="Layer_1" xmlns="http://www.w3.org/2000/svg" xmlns:xlink="http://www.w3.org/1999/xlink" 
	 viewBox="0 0 512.001 512.001" xml:space="preserve">
<g>
	<g>
		<circle style="fill:#ABB8B9;" cx="165.817" cy="202.779" r="56.847"/>
		<circle style="fill:#ABB8B9;" cx="346.163" cy="202.779" r="56.847"/>
	</g>
	<g>
		<path style="fill:#FCD051;" d="M289.315,202.783c0-31.399,25.455-56.85,56.852-56.85c31.398,0,56.85,25.452,56.85,56.85
			l-0.002-23.504l0.002-21.583c0-12.886-6.213-39.568-9.363-51.502h-47.485h-84.831H170.18c-16.892,0-32.797-4.444-46.604-12.218
			c-11.396,20.854-14.613,38.392-14.613,63.719v21.583v23.504c0-31.399,25.451-56.85,56.849-56.85
			c31.398,0,56.853,25.452,56.853,56.85H289.315z"/>
		<path style="fill:#FCD051;" d="M289.315,202.783h-66.651c0,31.397-25.455,56.853-56.853,56.853
			c-31.399,0-56.849-25.456-56.849-56.853v50.971c0,18.793,3.577,36.792,10.081,53.353c6.125-1.976,12.648-3.045,19.411-3.045
			h25.655h10.165h81.715h81.714h10.165h25.655c6.762,0,13.285,1.069,19.412,3.045c6.502-16.559,10.08-34.559,10.08-53.353v-50.971
			c0,31.397-25.453,56.853-56.85,56.853C314.77,259.636,289.315,234.179,289.315,202.783z"/>
	</g>
	<g>
		<path style="fill:#ED8C18;" d="M222.664,304.062h-48.389H164.11h-25.655c-6.762,0-13.285,1.069-19.411,3.045
			c-20.099,6.461-35.933,22.677-41.86,43.004c-1.645,5.642-2.528,11.597-2.528,17.752h6.466h38.869h44.12h5.046h5.119h17.916
			c9.506,0,18.542-2.107,26.665-5.878c21.872-10.143,37.135-32.334,37.135-57.921h-33.326V304.062z"/>
		<path style="fill:#ED8C18;" d="M255.991,304.062c0,25.587,15.262,47.779,37.134,57.926c8.122,3.767,17.159,5.874,26.663,5.874
			h17.917h5.12h5.045h44.121h38.87h6.465c0-6.155-0.883-12.11-2.53-17.752c-5.927-20.327-21.76-36.543-41.857-43.004
			c-6.126-1.976-12.65-3.045-19.412-3.045h-25.655h-10.165h-81.715V304.062z"/>
		<path style="fill:#ED8C18;" d="M293.124,361.984c-21.872-10.143-37.134-32.334-37.134-57.922
			c0,25.587-15.263,47.779-37.133,57.926c0,26.381,9.227,66.211,37.133,86.532C283.894,428.199,293.124,388.369,293.124,361.984z"/>
		<path style="fill:#ED8C18;" d="M255.991,448.52c-27.904-20.321-37.133-60.151-37.133-86.532
			c-8.124,3.767-17.161,5.874-26.667,5.874h-17.916h-5.119h-5.046h-44.121c0.429,24.111,2.109,50.281,5.268,77.477
			c33.057,34.464,79.5,55.994,130.734,55.994c25.36,0,49.545-5.273,71.512-14.791c9.831-41.093,14.449-82.994,15.322-118.681h-5.12
			h-17.917c-9.505,0-18.541-2.107-26.663-5.878C293.124,388.369,283.894,428.199,255.991,448.52z"/>
		<path style="fill:#ED8C18;" d="M342.825,367.861c-0.873,35.686-5.491,77.587-15.322,118.681
			c22.419-9.693,42.526-23.798,59.222-41.203c3.155-27.196,4.837-53.366,5.268-77.477h-44.121H342.825z"/>
		<path style="fill:#ED8C18;" d="M391.991,367.861c-0.43,24.111-2.112,50.281-5.268,77.477
			c20.612-21.492,36.02-48.017,44.137-77.477H391.991z"/>
		<path style="fill:#ED8C18;" d="M392.938,307.107c20.098,6.461,35.931,22.677,41.857,43.004c1.657-9.801,2.53-19.858,2.53-30.109
			v-78.048c0-21.541-12.765-39.17-34.308-39.17v50.971C403.017,272.547,399.438,290.546,392.938,307.107z"/>
		<path style="fill:#ED8C18;" d="M125.257,445.339c-3.159-27.196-4.838-53.366-5.268-77.477H81.12
			C89.236,397.322,104.645,423.847,125.257,445.339z"/>
		<path style="fill:#ED8C18;" d="M77.186,350.11c5.927-20.327,21.76-36.543,41.858-43.004
			c-6.505-16.559-10.081-34.559-10.081-53.353v-50.971c-21.544,0-34.308,17.624-34.308,39.17V320
			C74.655,330.252,75.53,340.309,77.186,350.11z"/>
		<path style="fill:#ED8C18;" d="M74.655,106.026c0,28.298,12.57,55.137,34.308,73.254v-21.583c0-25.327,3.218-42.866,14.613-63.719
			c-14.985-8.442-27.498-20.808-36.115-35.682C79.074,72.808,74.655,89.266,74.655,106.026z"/>
		<path style="fill:#ED8C18;" d="M87.461,58.294c8.617,14.874,21.131,27.24,36.115,35.682c13.806,7.773,29.711,12.218,46.604,12.218
			h91.156h84.83c-52.535,0-95.523-42.983-95.523-95.527h-42.046H74.655C74.655,27.981,79.321,44.253,87.461,58.294z"/>
		<path style="fill:#ED8C18;" d="M393.654,106.194c3.15,11.935,9.363,38.615,9.363,51.502l-0.002,21.583
			c21.698-18.08,34.26-44.847,34.31-73.085h-11.848h-21.251h-10.572V106.194z"/>
		<path style="fill:#ED8C18;" d="M437.325,106.194h-33.099h-58.059c-52.535,0-95.523-42.983-95.523-95.527h91.156
			C394.335,10.668,437.325,53.65,437.325,106.194z"/>
	</g>
</g>
<g>
	<path style="fill:#000003;" d="M445.69,349.513c1.522-9.761,2.303-19.675,2.303-29.512v-78.048
		c0-24.761-13.913-43.688-34.308-48.584v-9.265c21.665-19.879,34.074-47.72,34.296-77.268c0.013-0.213,0.033-0.426,0.033-0.643
		c0-0.241-0.009-0.48-0.025-0.717C447.603,47.251,400.115,0,341.799,0h-91.156H74.655c-5.892,0-10.668,4.776-10.668,10.668
		c0,17.141,4.088,33.345,11.331,47.693c-7.422,14.757-11.331,31.11-11.331,47.669c0,29.848,12.446,58.018,34.308,78.077v9.263
		c-20.394,4.896-34.308,23.823-34.308,48.584v78.048c0,9.824,0.779,19.729,2.3,29.483c-1.499,5.881-2.3,12.037-2.3,18.378
		c0,5.373,3.978,9.807,9.147,10.547c25.379,79.055,99.443,133.592,182.855,133.592c26.316,0,51.697-5.437,74.916-15.352
		c0.502-0.169,0.987-0.379,1.456-0.619c49.697-21.705,89.274-64.028,106.481-117.619c5.179-0.73,9.17-5.168,9.17-10.55
		c0-0.247-0.009-0.492-0.025-0.735C447.93,361.054,447.125,355.158,445.69,349.513z M86.397,357.194
		c3.845-18.779,17.628-33.977,35.592-39.846c0.109-0.031,0.219-0.053,0.327-0.089c1.921-0.62,3.873-1.124,5.847-1.517
		c0.051-0.011,0.102-0.022,0.154-0.031c0.55-0.107,1.101-0.202,1.653-0.292c0.205-0.032,0.411-0.065,0.616-0.096
		c0.459-0.068,0.916-0.131,1.376-0.189c0.316-0.038,0.633-0.073,0.949-0.106c0.383-0.041,0.766-0.08,1.15-0.112
		c0.427-0.034,0.857-0.061,1.287-0.085c0.294-0.018,0.589-0.039,0.883-0.052c0.733-0.03,1.468-0.049,2.207-0.049
		c0.005,0,0.011,0,0.016,0h105.792c-3.383,16.527-14.466,30.281-29.32,37.344c-0.354,0.141-0.7,0.296-1.034,0.471
		c-6.631,2.979-13.973,4.648-21.702,4.648H86.397V357.194z M109.589,378.529c0.332,10.439,0.892,21.012,1.659,31.667
		c-6.184-9.881-11.405-20.474-15.514-31.667H109.589z M170.18,116.862h175.987h0.002h39.17c2.855,11.827,5.972,26.877,6.798,36.529
		c-12.064-11.236-28.222-18.129-45.969-18.129c-33.601,0-61.539,24.675-66.668,56.855h-47.018
		c-5.13-32.18-33.068-56.855-66.668-56.855c-17.835,0-34.065,6.963-46.148,18.298c0.307-18.656,2.783-31.836,8.722-45.273
		C141.223,113.801,155.35,116.862,170.18,116.862z M383.722,294.109c-0.537-0.074-1.074-0.142-1.613-0.204
		c-0.558-0.065-1.118-0.128-1.681-0.179c-0.693-0.066-1.39-0.114-2.087-0.158c-0.441-0.029-0.879-0.065-1.322-0.085
		c-1.159-0.054-2.318-0.087-3.482-0.087c-0.003,0-0.006,0-0.011,0h-0.002H255.99h-22.66v-79.944h46.17
		c5.131,32.176,33.068,56.848,66.668,56.848c17.851,0,34.096-6.977,46.181-18.332v1.787c0,13.913-2.098,27.568-6.249,40.713
		c-0.137-0.025-0.274-0.038-0.412-0.062C385.036,294.297,384.38,294.2,383.722,294.109z M165.815,156.596
		c25.456,0,46.168,20.705,46.183,46.159c0,0.009-0.002,0.018-0.002,0.027v0.082c-0.044,25.426-20.743,46.099-46.181,46.099
		c-25.467,0-46.184-20.716-46.184-46.181C119.631,177.316,140.347,156.596,165.815,156.596z M392.35,202.783
		c0,25.464-20.716,46.181-46.181,46.181c-25.467,0-46.184-20.716-46.184-46.181c0-25.468,20.717-46.187,46.184-46.187
		C371.633,156.596,392.35,177.316,392.35,202.783z M125.88,294.467c-4.151-13.139-6.249-26.796-6.249-40.713v-1.787
		c12.086,11.355,28.331,18.332,46.184,18.332c17.851,0,34.096-6.977,46.181-18.33v41.425h-73.541h-0.002c-0.003,0-0.007,0-0.011,0
		c-1.168,0-2.333,0.034-3.495,0.089c-0.441,0.021-0.877,0.057-1.316,0.084c-0.703,0.046-1.406,0.095-2.107,0.16
		c-0.559,0.052-1.115,0.114-1.671,0.179c-0.546,0.064-1.09,0.132-1.634,0.208c-0.653,0.09-1.306,0.186-1.953,0.292
		C126.137,294.43,126.007,294.445,125.88,294.467z M255.991,342.424c6.446,10.682,15.506,19.61,26.279,25.922
		c-1.303,23.046-9.616,49.924-26.279,66.224c-16.665-16.3-24.977-43.178-26.279-66.224
		C240.484,362.034,249.542,353.106,255.991,342.424z M298.094,352.547c-0.337-0.177-0.685-0.334-1.041-0.475
		c-14.854-7.063-25.936-20.816-29.319-37.343h105.792c0.005,0,0.011,0,0.017,0c0.739,0,1.474,0.019,2.206,0.049
		c0.294,0.013,0.589,0.034,0.883,0.052c0.43,0.025,0.861,0.051,1.288,0.085c0.383,0.032,0.767,0.071,1.148,0.111
		c0.318,0.033,0.636,0.068,0.952,0.107c0.46,0.058,0.916,0.119,1.374,0.189c0.206,0.03,0.413,0.064,0.618,0.097
		c0.552,0.09,1.102,0.184,1.65,0.291c0.053,0.01,0.106,0.021,0.159,0.031c1.974,0.393,3.925,0.898,5.845,1.517
		c0.124,0.039,0.25,0.069,0.374,0.105c17.94,5.882,31.704,21.068,35.543,39.83H319.788
		C312.062,357.194,304.721,355.525,298.094,352.547z M381.042,378.529c-0.665,20.28-2.185,41.084-4.525,62.036
		c-10.139,10.121-21.505,18.946-33.815,26.246c6.713-34.279,9.439-65.111,10.434-88.282H381.042z M402.392,378.529h13.854
		c-4.107,11.192-9.33,21.786-15.515,31.668C401.498,399.54,402.058,388.966,402.392,378.529z M426.658,241.954v73.808
		c-5.854-5.97-12.699-10.959-20.272-14.699c4.844-15.274,7.299-31.142,7.299-47.308v-37.797
		C422.571,220.671,426.658,231.347,426.658,241.954z M413.387,151.569c-0.914-10.645-3.777-24.526-6.129-34.707h18.702
		C424.369,129.296,420.058,141.124,413.387,151.569z M341.799,21.335c43.179,0,78.927,32.418,84.19,74.192h-79.821h-0.002
		c-43.178,0-78.925-32.418-84.188-74.192H341.799z M240.509,21.335c3.033,30.257,18.819,56.811,41.888,74.192h-21.06
		c-24.304,0-47.529-10.565-63.718-28.988c-3.889-4.425-10.629-4.861-15.054-0.971c-4.425,3.889-4.861,10.63-0.971,15.055
		c4.884,5.558,10.287,10.537,16.095,14.904H170.18c-14.706,0-28.547-3.767-40.619-10.378c-0.279-0.189-0.568-0.369-0.869-0.533
		c-0.154-0.083-0.31-0.149-0.466-0.225c-12.817-7.322-23.561-17.877-31.086-30.562c-0.236-0.512-0.515-1.004-0.832-1.476
		c-5.315-9.382-8.912-19.86-10.319-31.016H240.509z M85.322,106.03c0-8.974,1.443-17.87,4.217-26.347
		c5.903,6.888,12.673,13.011,20.137,18.205c-8.389,18.291-10.886,34.679-11.311,53.321C89.927,137.847,85.322,122.25,85.322,106.03z
		 M85.322,241.954c0-10.606,4.088-21.282,12.973-25.996v37.797c0,16.17,2.454,32.036,7.298,47.306
		c-7.572,3.74-14.417,8.727-20.27,14.695C85.322,315.756,85.322,241.954,85.322,241.954z M135.462,440.565
		c-2.339-20.944-3.861-41.747-4.523-62.036h27.915c0.504,11.654,1.365,23.523,2.593,35.422c0.565,5.488,5.198,9.575,10.597,9.575
		c0.367,0,0.735-0.019,1.108-0.058c5.86-0.604,10.12-5.845,9.517-11.705c-1.151-11.166-1.978-22.299-2.468-33.234h11.99
		c5.78,0,11.399-0.684,16.803-1.935c3.007,28.043,14.78,61.663,40.716,80.551c1.871,1.362,4.075,2.044,6.28,2.044
		c2.204,0,4.408-0.682,6.28-2.044c25.936-18.887,37.708-52.508,40.716-80.551c5.403,1.252,11.023,1.935,16.801,1.935h11.995
		c-1.152,25.825-4.536,61.288-13.417,100.225c-19.482,7.712-40.568,11.911-62.375,11.911
		C209.756,490.665,166.757,471.804,135.462,440.565z"/>
	<path style="fill:#000003;" d="M186.395,440.771c-0.883-5.823-6.318-9.837-12.146-8.947c-5.824,0.883-9.831,6.322-8.948,12.147
		l0.103,0.661c0.841,5.245,5.372,8.981,10.52,8.981c0.56,0,1.13-0.045,1.701-0.137c5.817-0.932,9.777-6.405,8.844-12.222
		L186.395,440.771z"/>
	<path style="fill:#000003;" d="M163.625,52.139c1.738,4.034,5.669,6.449,9.801,6.449c1.408,0,2.842-0.282,4.217-0.874
		c5.411-2.333,7.906-8.609,5.574-14.019l-0.234-0.546c-2.332-5.411-8.608-7.904-14.019-5.575c-5.41,2.333-7.906,8.609-5.574,14.019
		L163.625,52.139z"/>
</g>
</svg>